STARTFONT 2.1
COMMENT
COMMENT Converted from OpenType font "Q:\font stuff\winfont\Mai Tai.ttf" by "otf2bdf 3.0".
COMMENT
FONT -FreeType-Mai Tai-Medium-R-Normal--96-960-72-72-P-195-ISO10646-1
SIZE 96 72 72
FONTBOUNDINGBOX 41 88 -2 -18
STARTPROPERTIES 19
FOUNDRY "FreeType"
FAMILY_NAME "Mai Tai"
WEIGHT_NAME "Medium"
SLANT "R"
SETWIDTH_NAME "Normal"
ADD_STYLE_NAME ""
PIXEL_SIZE 72
POINT_SIZE 960
RESOLUTION_X 72
RESOLUTION_Y 72
SPACING "P"
AVERAGE_WIDTH 195
CHARSET_REGISTRY "ISO10646"
CHARSET_ENCODING "1"
FONT_ASCENT 76
FONT_DESCENT 19
COPYRIGHT "(c) 1998 Ray Larabie - rlarabie@hotmail.com"
_OTF_FONTFILE "Q:\font stuff\winfont\Mai Tai.ttf"
_OTF_PSNAME "MaiTai"
ENDPROPERTIES
CHARS 101
STARTCHAR 0020
ENCODING 32
SWIDTH 166 0
DWIDTH 16 0
BBX 0 0 0 0
BITMAP
ENDCHAR
STARTCHAR 0021
ENCODING 33
SWIDTH 145 0
DWIDTH 14 0
BBX 7 69 3 0
BITMAP
3E
7E
7E
FE
FE
FE
FE
FE
FE
FE
FE
FE
FE
FE
FE
FE
FE
FE
FE
FE
FE
FE
FE
FE
FE
FE
FE
FE
FE
FE
FE
FE
FE
FE
FE
FE
FE
FE
FE
FE
FE
FE
FE
FE
FE
FE
7E
7E
3E
00
00
00
00
00
00
00
00
00
00
00
3C
7E
7E
7E
FE
7E
7E
7E
3C
ENDCHAR
STARTCHAR 0022
ENCODING 34
SWIDTH 291 0
DWIDTH 28 0
BBX 21 15 3 54
BITMAP
3E03F0
7E03F8
7E03F8
FE03F8
FE03F8
FE03F8
FE03F8
FE03F8
FE03F8
FE03F8
FE03F8
7E03F8
7E03F8
7E03F8
3E03E0
ENDCHAR
STARTCHAR 0023
ENCODING 35
SWIDTH 427 0
DWIDTH 41 0
BBX 35 49 3 11
BITMAP
007C07E000
00FC07F000
00FC07F000
01FC07F000
01FC07F000
01FC07F000
01FC07F000
01FC07F000
01FC07F000
01FC07F000
01FC07F000
FFFFFFFFE0
FFFFFFFFE0
FFFFFFFFE0
7FFFFFFFE0
7FFFFFFFE0
7FFFFFFFE0
7FFFFFFFE0
7FFFFFFFE0
1FFFFFFFC0
01FC07F000
01FC07F000
01FC07F000
01FC07F000
01FC07F000
01FC07F000
01FC07F000
01FC07F000
3FFFFFFFC0
7FFFFFFFE0
7FFFFFFFE0
FFFFFFFFE0
FFFFFFFFE0
FFFFFFFFE0
FFFFFFFFE0
FFFFFFFFE0
FFFFFFFFE0
01FC07F000
01FC07F000
01FC07F000
01FC07F000
01FC07F000
01FC07F000
01FC07F000
01FC07F000
00FC07F000
00FC07F000
00FC07F000
007C07C000
ENDCHAR
STARTCHAR 0024
ENCODING 36
SWIDTH 291 0
DWIDTH 28 0
BBX 21 38 3 29
BITMAP
006000
007000
007800
3FFFF0
7FFFF8
7FFFF8
FFFFF8
FFFFF8
FFFFF8
FFFFF8
FFFFF8
FFFFF8
FE7000
FE7000
FFFFE0
FFFFF0
FFFFF8
FFFFF8
7FFFF8
7FFFF8
7FFFF8
3FFFF8
1FFFF8
0073F8
0073F8
0073F8
FFFFF8
FFFFF8
FFFFF8
FFFFF8
FFFFF8
7FFFF8
7FFFF8
7FFFF8
1FFFF0
007000
007000
004000
ENDCHAR
STARTCHAR 0025
ENCODING 37
SWIDTH 291 0
DWIDTH 28 0
BBX 21 32 3 35
BITMAP
3C03F0
7E03F8
7E03F8
7E03F8
FE03F8
7E03F8
7E03F8
7E03F8
3C03F8
0003F8
0003F8
0003F8
3FFFF8
7FFFF8
7FFFF8
FFFFF8
FFFFF8
FFFFF8
FFFFF8
FFFFF8
FFFFE0
FE0000
FE0000
FE00E0
FE01F8
FE01F8
FE03F8
FE03F8
7E03F8
7E01F8
7E01F8
3E00F0
ENDCHAR
STARTCHAR 0026
ENCODING 38
SWIDTH 291 0
DWIDTH 28 0
BBX 21 35 3 17
BITMAP
3FF800
7FFC00
7FFC00
FFFC00
FFFC00
FFFC00
FFFC00
FFFC00
FFFC00
FE0000
FE0000
FE0000
FE0000
FFFFF8
FFFFF8
FFFFF8
FFFFF8
FFFFF8
FFFFF8
FFFFF8
FFFFF8
FFFFF8
FE3F80
FE3F80
FE3F80
FE3F80
FFFF80
FFFF80
FFFF80
FFFF80
FFFF80
7FFF80
7FFF80
7FFF80
3FFF00
ENDCHAR
STARTCHAR 0027
ENCODING 39
SWIDTH 166 0
DWIDTH 16 0
BBX 7 15 4 54
BITMAP
3E
7E
FE
FE
FE
FE
FE
FE
FE
FE
FE
FE
FE
7E
3E
ENDCHAR
STARTCHAR 0028
ENCODING 40
SWIDTH 291 0
DWIDTH 28 0
BBX 21 69 3 0
BITMAP
3FFFF0
7FFFF8
7FFFF8
FFFFF8
FFFFF8
FFFFF8
FFFFF8
FFFFF8
FFFFF8
FE0000
FE0000
FE0000
FE0000
FE0000
FE0000
FE0000
FE0000
FE0000
FE0000
FE0000
FE0000
FE0000
FE0000
FE0000
FE0000
FE0000
FE0000
FE0000
FE0000
FE0000
FE0000
FE0000
FE0000
FE0000
FE0000
FE0000
FE0000
FE0000
FE0000
FE0000
FE0000
FE0000
FE0000
FE0000
FE0000
FE0000
FE0000
FE0000
FE0000
FE0000
FE0000
FE0000
FE0000
FE0000
FE0000
FE0000
FE0000
FE0000
FE0000
FE0000
FFFFF8
FFFFF8
FFFFF8
FFFFF8
FFFFF8
7FFFF8
7FFFF8
7FFFF8
3FFFF0
ENDCHAR
STARTCHAR 0029
ENCODING 41
SWIDTH 291 0
DWIDTH 28 0
BBX 21 69 3 0
BITMAP
3FFFF0
7FFFF8
7FFFF8
FFFFF8
FFFFF8
FFFFF8
FFFFF8
FFFFF8
FFFFF8
0003F8
0003F8
0003F8
0003F8
0003F8
0003F8
0003F8
0003F8
0003F8
0003F8
0003F8
0003F8
0003F8
0003F8
0003F8
0003F8
0003F8
0003F8
0003F8
0003F8
0003F8
0003F8
0003F8
0003F8
0003F8
0003F8
0003F8
0003F8
0003F8
0003F8
0003F8
0003F8
0003F8
0003F8
0003F8
0003F8
0003F8
0003F8
0003F8
0003F8
0003F8
0003F8
0003F8
0003F8
0003F8
0003F8
0003F8
0003F8
0003F8
0003F8
0003F8
FFFFF8
FFFFF8
FFFFF8
7FFFF8
7FFFF8
7FFFF8
7FFFF8
7FFFF8
3FFFF0
ENDCHAR
STARTCHAR 002A
ENCODING 42
SWIDTH 291 0
DWIDTH 28 0
BBX 18 22 5 40
BITMAP
023000
03F000
03F000
03E000
43E080
61E180
79E780
7DFF80
7FFF80
FFFFC0
FFFFC0
FFFF80
07F800
07F800
0FFC00
1FFE00
1FBE00
3F3F00
7F3F80
0F1E00
061C00
060800
ENDCHAR
STARTCHAR 002B
ENCODING 43
SWIDTH 291 0
DWIDTH 28 0
BBX 21 27 3 7
BITMAP
01F800
01FC00
01FC00
01FC00
01FC00
01FC00
01FC00
01FC00
01FC00
01FC00
FFFFF8
FFFFF8
FFFFF8
FFFFF8
FFFFF8
FFFFF8
FFFFF8
FFFFF8
FFFFF8
01FC00
01FC00
01FC00
01FC00
01FC00
01FC00
01FC00
01F800
ENDCHAR
STARTCHAR 002C
ENCODING 44
SWIDTH 145 0
DWIDTH 14 0
BBX 7 20 3 -9
BITMAP
3E
7E
7E
FE
FE
FE
FE
FE
FE
FE
FE
FE
FE
FE
FE
FE
7E
7E
7E
3E
ENDCHAR
STARTCHAR 002D
ENCODING 45
SWIDTH 291 0
DWIDTH 28 0
BBX 21 8 3 16
BITMAP
FFFFF8
FFFFF8
FFFFF8
FFFFF8
FFFFF8
FFFFF8
FFFFF8
FFFFF8
ENDCHAR
STARTCHAR 002E
ENCODING 46
SWIDTH 145 0
DWIDTH 14 0
BBX 7 9 3 0
BITMAP
3C
7E
7E
7E
FE
7E
7E
7E
3C
ENDCHAR
STARTCHAR 002F
ENCODING 47
SWIDTH 291 0
DWIDTH 28 0
BBX 20 69 4 1
BITMAP
0001F0
0007F0
0007E0
000FE0
000FE0
000FE0
001FE0
001FC0
001FC0
001FC0
001FC0
003FC0
003F80
003F80
003F80
003F80
007F80
007F00
007F00
007F00
007F00
00FF00
00FE00
00FE00
00FE00
00FE00
01FE00
01FC00
01FC00
01FC00
01FC00
03FC00
03F800
03F800
03F800
03F800
07F000
07F000
07F000
07F000
0FF000
0FE000
0FE000
0FE000
0FE000
1FE000
1FC000
1FC000
1FC000
1FC000
3FC000
3F8000
3F8000
3F8000
3F8000
7F8000
7F0000
7F0000
7F0000
7F0000
FF0000
FE0000
FE0000
FE0000
FE0000
FE0000
FC0000
7C0000
7C0000
ENDCHAR
STARTCHAR 0030
ENCODING 48
SWIDTH 291 0
DWIDTH 28 0
BBX 21 52 3 0
BITMAP
3FFFF0
7FFFF8
7FFFF8
FFFFF8
FFFFF8
FFFFF8
FFFFF8
FFFFF8
FFFFF8
FE03F8
FE03F8
FE03F8
FE03F8
FE03F8
FE03F8
FE03F8
FE03F8
FE03F8
FE03F8
FE03F8
FE03F8
FE03F8
FE03F8
FE03F8
FE03F8
FE03F8
FE03F8
FE03F8
FE03F8
FE03F8
FE03F8
FE03F8
FE03F8
FE03F8
FE03F8
FE03F8
FE03F8
FE03F8
FE03F8
FE03F8
FE03F8
FE03F8
FE03F8
FFFFF8
FFFFF8
FFFFF8
FFFFF8
FFFFF8
7FFFF8
7FFFF8
7FFFF8
3FFFF0
ENDCHAR
STARTCHAR 0031
ENCODING 49
SWIDTH 145 0
DWIDTH 14 0
BBX 7 52 3 0
BITMAP
3E
7E
7E
FE
FE
FE
FE
FE
FE
FE
FE
FE
FE
FE
FE
FE
FE
FE
FE
FE
FE
FE
FE
FE
FE
FE
FE
FE
FE
FE
FE
FE
FE
FE
FE
FE
FE
FE
FE
FE
FE
FE
FE
FE
FE
FE
FE
FE
7E
7E
7E
3E
ENDCHAR
STARTCHAR 0032
ENCODING 50
SWIDTH 291 0
DWIDTH 28 0
BBX 21 52 3 0
BITMAP
3FFFF0
7FFFF8
7FFFF8
FFFFF8
FFFFF8
FFFFF8
FFFFF8
FFFFF8
FFFFF8
0003F8
0003F8
0003F8
0003F8
0003F8
0003F8
0003F8
0003F8
0003F8
0003F8
0003F8
0003F8
0003F8
0003F8
0003F8
0003F8
0003F8
0003F8
0003F8
3FFFF8
7FFFF8
7FFFF8
FFFFF8
FFFFF8
FFFFF8
FFFFF8
FFFFF8
FFFFE0
FE0000
FE0000
FE0000
FE0000
FE0000
FE0000
FFFFF8
FFFFF8
FFFFF8
FFFFF8
FFFFF8
7FFFF8
7FFFF8
7FFFF8
3FFFF0
ENDCHAR
STARTCHAR 0033
ENCODING 51
SWIDTH 291 0
DWIDTH 28 0
BBX 21 52 3 0
BITMAP
3FFFF0
7FFFF8
7FFFF8
FFFFF8
FFFFF8
FFFFF8
FFFFF8
FFFFF8
FFFFF8
0003F8
0003F8
0003F8
0003F8
0003F8
0003F8
0003F8
0003F8
0003F8
0003F8
0003F8
0003F8
0003F8
0003F8
0003F8
0003F8
0003F8
0003F8
0003F8
FFFFF8
FFFFF8
FFFFF8
FFFFF8
FFFFF8
FFFFF8
FFFFF8
FFFFF8
FFFFF8
0003F8
0003F8
0003F8
0003F8
0003F8
0003F8
FFFFF8
FFFFF8
FFFFF8
7FFFF8
7FFFF8
7FFFF8
7FFFF8
7FFFF8
3FFFF0
ENDCHAR
STARTCHAR 0034
ENCODING 52
SWIDTH 291 0
DWIDTH 28 0
BBX 21 52 3 0
BITMAP
3E03F0
7E03F8
7E03F8
FE03F8
FE03F8
FE03F8
FE03F8
FE03F8
FE03F8
FE03F8
FE03F8
FE03F8
FE03F8
FE03F8
FE03F8
FE03F8
FE03F8
FE03F8
FE03F8
FE03F8
FE03F8
FE03F8
FE03F8
FE03F8
FE03F8
FE03F8
FE03F8
FE03F8
FFFFF8
FFFFF8
FFFFF8
FFFFF8
FFFFF8
FFFFF8
FFFFF8
FFFFF8
FFFFF8
0003F8
0003F8
0003F8
0003F8
0003F8
0003F8
0003F8
0003F8
0003F8
0003F8
0003F8
0003F8
0003F8
0003F8
0003F0
ENDCHAR
STARTCHAR 0035
ENCODING 53
SWIDTH 291 0
DWIDTH 28 0
BBX 21 52 3 0
BITMAP
3FFFF0
7FFFF8
7FFFF8
FFFFF8
FFFFF8
FFFFF8
FFFFF8
FFFFF8
FFFFF8
FE0000
FE0000
FE0000
FE0000
FE0000
FE0000
FE0000
FE0000
FE0000
FE0000
FE0000
FE0000
FE0000
FE0000
FE0000
FE0000
FE0000
FE0000
FE0000
FFFFE0
FFFFF0
FFFFF8
FFFFF8
7FFFF8
7FFFF8
7FFFF8
3FFFF8
1FFFF8
0003F8
0003F8
0003F8
0003F8
0003F8
0003F8
FFFFF8
FFFFF8
FFFFF8
7FFFF8
7FFFF8
7FFFF8
7FFFF8
7FFFF8
3FFFF0
ENDCHAR
STARTCHAR 0036
ENCODING 54
SWIDTH 291 0
DWIDTH 28 0
BBX 21 52 3 0
BITMAP
3FFFF0
7FFFF8
7FFFF8
FFFFF8
FFFFF8
FFFFF8
FFFFF8
FFFFF8
FFFFF8
FE0000
FE0000
FE0000
FE0000
FE0000
FE0000
FE0000
FE0000
FE0000
FE0000
FE0000
FE0000
FE0000
FE0000
FE0000
FE0000
FE0000
FE0000
FE0000
FFFFE0
FFFFF8
FFFFF8
FFFFF8
FFFFF8
FFFFF8
FFFFF8
FFFFF8
FFFFF8
FE03F8
FE03F8
FE03F8
FE03F8
FE03F8
FE03F8
FFFFF8
FFFFF8
FFFFF8
FFFFF8
FFFFF8
7FFFF8
7FFFF8
7FFFF8
3FFFF0
ENDCHAR
STARTCHAR 0037
ENCODING 55
SWIDTH 291 0
DWIDTH 28 0
BBX 21 52 3 0
BITMAP
3FFFF0
7FFFF8
7FFFF8
FFFFF8
FFFFF8
FFFFF8
FFFFF8
FFFFF8
FFFFF8
0003F8
0003F8
0003F8
0003F8
0003F8
0003F8
0003F8
0003F8
0003F8
0003F8
0003F8
0003F8
0003F8
0003F8
0003F8
0003F8
0003F8
0003F8
0003F8
0003F8
0003F8
0003F8
0003F8
0003F8
0003F8
0003F8
0003F8
0003F8
0003F8
0003F8
0003F8
0003F8
0003F8
0003F8
0003F8
0003F8
0003F8
0003F8
0003F8
0003F8
0003F8
0003F8
0003F0
ENDCHAR
STARTCHAR 0038
ENCODING 56
SWIDTH 291 0
DWIDTH 28 0
BBX 21 52 3 0
BITMAP
3FFFF0
7FFFF8
7FFFF8
FFFFF8
FFFFF8
FFFFF8
FFFFF8
FFFFF8
FFFFF8
FE03F8
FE03F8
FE03F8
FE03F8
FE03F8
FE03F8
FE03F8
FE03F8
FE03F8
FE03F8
FE03F8
FE03F8
FE03F8
FE03F8
FE03F8
FE03F8
FE03F8
FE03F8
FE03F8
7FFFF8
7FFFF8
3FFFF0
0FFFC0
7FFFF0
7FFFF8
7FFFF8
FFFFF8
FE03F8
FE03F8
FE03F8
FE03F8
FE03F8
FE03F8
FE03F8
FFFFF8
FFFFF8
FFFFF8
FFFFF8
FFFFF8
7FFFF8
7FFFF8
7FFFF8
3FFFF0
ENDCHAR
STARTCHAR 0039
ENCODING 57
SWIDTH 291 0
DWIDTH 28 0
BBX 21 52 3 0
BITMAP
3FFFF0
7FFFF8
7FFFF8
FFFFF8
FFFFF8
FFFFF8
FFFFF8
FFFFF8
FFFFF8
FE03F8
FE03F8
FE03F8
FE03F8
FE03F8
FE03F8
FE03F8
FE03F8
FE03F8
FE03F8
FE03F8
FE03F8
FE03F8
FE03F8
FE03F8
FE03F8
FE03F8
FE03F8
FE03F8
FFFFF8
FFFFF8
FFFFF8
FFFFF8
FFFFF8
7FFFF8
7FFFF8
7FFFF8
3FFFF8
0003F8
0003F8
0003F8
0003F8
0003F8
0003F8
FFFFF8
FFFFF8
FFFFF8
7FFFF8
7FFFF8
7FFFF8
7FFFF8
7FFFF8
3FFFF0
ENDCHAR
STARTCHAR 003A
ENCODING 58
SWIDTH 145 0
DWIDTH 14 0
BBX 7 26 3 0
BITMAP
3C
7E
7E
7E
FE
7E
7E
7E
3C
00
00
00
00
00
00
00
00
3C
7E
7E
7E
FE
7E
7E
7E
3C
ENDCHAR
STARTCHAR 003B
ENCODING 59
SWIDTH 145 0
DWIDTH 14 0
BBX 7 35 3 -9
BITMAP
3C
7E
7E
7E
FE
7E
7E
7E
3C
00
00
00
00
00
00
3E
7E
7E
FE
FE
FE
FE
FE
FE
FE
FE
FE
FE
FE
FE
FE
7E
7E
7E
3E
ENDCHAR
STARTCHAR 003C
ENCODING 60
SWIDTH 145 0
DWIDTH 14 0
BBX 7 15 3 27
BITMAP
02
06
06
0E
1E
3E
7E
FE
7E
3E
1E
0E
06
06
02
ENDCHAR
STARTCHAR 003D
ENCODING 61
SWIDTH 291 0
DWIDTH 28 0
BBX 21 22 3 13
BITMAP
FFFFF8
FFFFF8
FFFFF8
FFFFF8
FFFFF8
FFFFF8
FFFFF8
FFFFF8
FFFFF8
000000
000000
000000
000000
FFFFF8
FFFFF8
FFFFF8
FFFFF8
FFFFF8
FFFFF8
FFFFF8
FFFFF8
FFFFF8
ENDCHAR
STARTCHAR 003E
ENCODING 62
SWIDTH 302 0
DWIDTH 29 0
BBX 7 15 4 27
BITMAP
80
C0
E0
F0
F0
F8
FC
FE
FC
F8
F0
F0
E0
C0
80
ENDCHAR
STARTCHAR 003F
ENCODING 63
SWIDTH 291 0
DWIDTH 28 0
BBX 21 69 3 0
BITMAP
3FFFF0
7FFFF8
7FFFF8
FFFFF8
FFFFF8
FFFFF8
FFFFF8
FFFFF8
FFFFF8
0003F8
0003F8
0003F8
0003F8
0003F8
0003F8
0003F8
0003F8
0003F8
0003F8
0003F8
0003F8
0003F8
0003F8
0003F8
0003F8
0003F8
0003F8
0003F8
0003F8
0003F8
0003F8
0003F8
0003F8
0003F8
0003F8
0003F8
0003F8
0003F8
0003F8
0003F8
0003F8
0003F8
0003F8
0003F8
0003F8
003FF8
007FF8
007FF8
00FFF8
00FFF8
007FF8
007FF8
007FF0
000000
000000
000000
000000
000000
000000
000000
007000
00F800
00FC00
00FC00
01FC00
00FC00
00FC00
00F800
007000
ENDCHAR
STARTCHAR 0040
ENCODING 64
SWIDTH 458 0
DWIDTH 44 0
BBX 35 51 4 9
BITMAP
3FFFFFFF80
7FFFFFFFC0
FFFFFFFFE0
FFFFFFFFE0
FFFFFFFFE0
FFFFFFFFE0
FFFFFFFFE0
FFFFFFFFE0
FFFFFFFFE0
FE00000FE0
FE00000FE0
FE00000FE0
FE00000FE0
FE07FE0FE0
FE0FFF0FE0
FE0FFF0FE0
FE0FFF0FE0
FE0FFF0FE0
FE000F0FE0
FE000F0FE0
FE000F0FE0
FE000F0FE0
FE000F0FE0
FE07FF0FE0
FE0FFF0FE0
FE0FFF0FE0
FE0FFF0FE0
FE0FFF0FE0
FE0F0F0FE0
FE0F0F0FE0
FE0F0F0FE0
FE0F0F0FE0
FE0F0FFFE0
FE0FFFFFE0
FE0FFFFFE0
FE0FFFFFE0
FE0FFFFFC0
FE07FFFF80
FE00000000
FE00000000
FE00000000
FE00000000
FFFFFFFFE0
FFFFFFFFE0
FFFFFFFFE0
FFFFFFFFE0
FFFFFFFFE0
FFFFFFFFE0
FFFFFFFFE0
7FFFFFFFC0
3FFFFFFF80
ENDCHAR
STARTCHAR 0041
ENCODING 65
SWIDTH 291 0
DWIDTH 28 0
BBX 21 69 3 0
BITMAP
3FFFF0
7FFFF8
7FFFF8
FFFFF8
FFFFF8
FFFFF8
FFFFF8
FFFFF8
FFFFF8
FE03F8
FE03F8
FE03F8
FE03F8
FE03F8
FE03F8
FE03F8
FE03F8
FE03F8
FE03F8
FE03F8
FE03F8
FE03F8
FE03F8
FE03F8
FE03F8
FE03F8
FE03F8
FE03F8
FE03F8
FE03F8
FE03F8
FE03F8
FE03F8
FE03F8
FE03F8
FE03F8
FE03F8
FE03F8
FE03F8
FE03F8
FE03F8
FE03F8
FE03F8
FE03F8
FE03F8
FFFFF8
FFFFF8
FFFFF8
FFFFF8
FFFFF8
FFFFF8
FFFFF8
FFFFF8
FFFFF8
FE03F8
FE03F8
FE03F8
FE03F8
FE03F8
FE03F8
FE03F8
FE03F8
FE03F8
FE03F8
FE03F8
7E03F8
7E03F8
7E03F8
3E03F0
ENDCHAR
STARTCHAR 0042
ENCODING 66
SWIDTH 291 0
DWIDTH 28 0
BBX 21 69 3 0
BITMAP
3FFFF0
7FFFF8
7FFFF8
FFFFF8
FFFFF8
FFFFF8
FFFFF8
FFFFF8
FFFFF8
FE03F8
FE03F8
FE03F8
FE03F8
FE03F8
FE03F8
FE03F8
FE03F8
FE03F8
FE03F8
FE03F8
FE03F8
FE03F8
FE03F8
FE03F8
FE03F8
FE03F8
FE03F8
FE03F8
FE03F8
FE03F8
FE03F8
FE03F8
FE03F8
FE03F8
FE03F8
FE03F8
FE03F8
FE03F8
FE03F8
FE03F8
FE03F8
FE03F8
FE03F8
FE03F8
FE03F8
FFFFF8
FFFFF8
FFFFF0
FFFFC0
FFFFF0
FFFFF8
FFFFF8
FFFFF8
FE03F8
FE03F8
FE03F8
FE03F8
FE03F8
FE03F8
FE03F8
FFFFF8
FFFFF8
FFFFF8
FFFFF8
FFFFF8
7FFFF8
7FFFF8
7FFFF8
3FFFF0
ENDCHAR
STARTCHAR 0043
ENCODING 67
SWIDTH 291 0
DWIDTH 28 0
BBX 21 69 3 0
BITMAP
3FFFF0
7FFFF8
7FFFF8
FFFFF8
FFFFF8
FFFFF8
FFFFF8
FFFFF8
FFFFF8
FE0000
FE0000
FE0000
FE0000
FE0000
FE0000
FE0000
FE0000
FE0000
FE0000
FE0000
FE0000
FE0000
FE0000
FE0000
FE0000
FE0000
FE0000
FE0000
FE0000
FE0000
FE0000
FE0000
FE0000
FE0000
FE0000
FE0000
FE0000
FE0000
FE0000
FE0000
FE0000
FE0000
FE0000
FE0000
FE0000
FE0000
FE0000
FE0000
FE0000
FE0000
FE0000
FE0000
FE0000
FE0000
FE0000
FE0000
FE0000
FE0000
FE0000
FE0000
FFFFF8
FFFFF8
FFFFF8
FFFFF8
FFFFF8
7FFFF8
7FFFF8
7FFFF8
3FFFF0
ENDCHAR
STARTCHAR 0044
ENCODING 68
SWIDTH 291 0
DWIDTH 28 0
BBX 21 69 3 0
BITMAP
FFFFF0
FFFFF8
FFFFF8
FFFFF8
FFFFF8
FFFFF8
FFFFF8
FFFFF8
FFFFF8
FE03F8
FE03F8
FE03F8
FE03F8
FE03F8
FE03F8
FE03F8
FE03F8
FE03F8
FE03F8
FE03F8
FE03F8
FE03F8
FE03F8
FE03F8
FE03F8
FE03F8
FE03F8
FE03F8
FE03F8
FE03F8
FE03F8
FE03F8
FE03F8
FE03F8
FE03F8
FE03F8
FE03F8
FE03F8
FE03F8
FE03F8
FE03F8
FE03F8
FE03F8
FE03F8
FE03F8
FE03F8
FE03F8
FE03F8
FE03F8
FE03F8
FE03F8
FE03F8
FE03F8
FE03F8
FE03F8
FE03F8
FE03F8
FE03F8
FE03F8
FE03F8
FFFFF8
FFFFF8
FFFFF8
FFFFF8
FFFFF8
FFFFF8
FFFFF8
FFFFF8
FFFFF0
ENDCHAR
STARTCHAR 0045
ENCODING 69
SWIDTH 291 0
DWIDTH 28 0
BBX 21 69 3 0
BITMAP
3FFFF0
7FFFF8
7FFFF8
FFFFF8
FFFFF8
FFFFF8
FFFFF8
FFFFF8
FFFFF8
FE0000
FE0000
FE0000
FE0000
FE0000
FE0000
FE0000
FE0000
FE0000
FE0000
FE0000
FE0000
FE0000
FE0000
FE0000
FE0000
FE0000
FE0000
FE0000
FE0000
FE0000
FE0000
FE0000
FE0000
FE0000
FE0000
FE0000
FE0000
FE0000
FE0000
FE0000
FE0000
FE0000
FE0000
FE0000
FE0000
FFFFF8
FFFFF8
FFFFF8
FFFFF8
FFFFF8
FFFFF8
FFFFF8
FFFFF8
FFFFF8
FE0000
FE0000
FE0000
FE0000
FE0000
FE0000
FFFFF8
FFFFF8
FFFFF8
FFFFF8
FFFFF8
7FFFF8
7FFFF8
7FFFF8
3FFFF0
ENDCHAR
STARTCHAR 0046
ENCODING 70
SWIDTH 291 0
DWIDTH 28 0
BBX 21 69 3 0
BITMAP
3FFFF0
7FFFF8
7FFFF8
FFFFF8
FFFFF8
FFFFF8
FFFFF8
FFFFF8
FFFFF8
FE0000
FE0000
FE0000
FE0000
FE0000
FE0000
FE0000
FE0000
FE0000
FE0000
FE0000
FE0000
FE0000
FE0000
FE0000
FE0000
FE0000
FE0000
FE0000
FE0000
FE0000
FE0000
FE0000
FE0000
FE0000
FE0000
FE0000
FE0000
FE0000
FE0000
FE0000
FE0000
FE0000
FE0000
FE0000
FE0000
FFFFF8
FFFFF8
FFFFF8
FFFFF8
FFFFF8
FFFFF8
FFFFF8
FFFFF8
FFFFF8
FE0000
FE0000
FE0000
FE0000
FE0000
FE0000
FE0000
FE0000
FE0000
FE0000
FE0000
7E0000
7E0000
7E0000
3E0000
ENDCHAR
STARTCHAR 0047
ENCODING 71
SWIDTH 291 0
DWIDTH 28 0
BBX 21 69 3 0
BITMAP
3FFFF0
7FFFF8
7FFFF8
FFFFF8
FFFFF8
FFFFF8
FFFFF8
FFFFF8
FFFFF8
FE0000
FE0000
FE0000
FE0000
FE0000
FE0000
FE0000
FE0000
FE0000
FE0000
FE0000
FE0000
FE0000
FE0000
FE0000
FE0000
FE0000
FE0000
FE0000
FE0000
FE0000
FE0000
FE0000
FE0000
FE0000
FE0000
FE0000
FE0000
FE0000
FE0000
FE0000
FE0000
FE0000
FE0000
FE0000
FE0000
FE0000
FE0000
FE0000
FE0000
FE03F0
FE03F8
FE03F8
FE03F8
FE03F8
FE03F8
FE03F8
FE03F8
FE03F8
FE03F8
FE03F8
FFFFF8
FFFFF8
FFFFF8
FFFFF8
FFFFF8
7FFFF8
7FFFF8
7FFFF8
3FFFF0
ENDCHAR
STARTCHAR 0048
ENCODING 72
SWIDTH 291 0
DWIDTH 28 0
BBX 21 69 3 0
BITMAP
3E03F0
7E03F8
7E03F8
FE03F8
FE03F8
FE03F8
FE03F8
FE03F8
FE03F8
FE03F8
FE03F8
FE03F8
FE03F8
FE03F8
FE03F8
FE03F8
FE03F8
FE03F8
FE03F8
FE03F8
FE03F8
FE03F8
FE03F8
FE03F8
FE03F8
FE03F8
FE03F8
FE03F8
FE03F8
FE03F8
FE03F8
FE03F8
FE03F8
FE03F8
FE03F8
FE03F8
FE03F8
FE03F8
FE03F8
FE03F8
FE03F8
FE03F8
FE03F8
FE03F8
FE03F8
FFFFF8
FFFFF8
FFFFF8
FFFFF8
FFFFF8
FFFFF8
FFFFF8
FFFFF8
FFFFF8
FE03F8
FE03F8
FE03F8
FE03F8
FE03F8
FE03F8
FE03F8
FE03F8
FE03F8
FE03F8
FE03F8
7E03F8
7E03F8
7E03F8
3E03F0
ENDCHAR
STARTCHAR 0049
ENCODING 73
SWIDTH 145 0
DWIDTH 14 0
BBX 7 69 3 0
BITMAP
3E
7E
7E
FE
FE
FE
FE
FE
FE
FE
FE
FE
FE
FE
FE
FE
FE
FE
FE
FE
FE
FE
FE
FE
FE
FE
FE
FE
FE
FE
FE
FE
FE
FE
FE
FE
FE
FE
FE
FE
FE
FE
FE
FE
FE
FE
FE
FE
FE
FE
FE
FE
FE
FE
FE
FE
FE
FE
FE
FE
FE
FE
FE
FE
FE
7E
7E
7E
3E
ENDCHAR
STARTCHAR 004A
ENCODING 74
SWIDTH 291 0
DWIDTH 28 0
BBX 21 69 3 0
BITMAP
0003F0
0003F8
0003F8
0003F8
0003F8
0003F8
0003F8
0003F8
0003F8
0003F8
0003F8
0003F8
0003F8
0003F8
0003F8
0003F8
0003F8
0003F8
0003F8
0003F8
0003F8
0003F8
0003F8
0003F8
0003F8
0003F8
0003F8
0003F8
0003F8
0003F8
0003F8
0003F8
0003F8
0003F8
0003F8
0003F8
0003F8
0003F8
0003F8
0003F8
0003F8
0003F8
0003F8
0003F8
0003F8
0003F8
0003F8
0003F8
0003F8
3E03F8
7E03F8
7E03F8
FE03F8
FE03F8
FE03F8
FE03F8
FE03F8
FE03F8
FE03F8
FE03F8
FFFFF8
FFFFF8
FFFFF8
FFFFF8
FFFFF8
7FFFF8
7FFFF8
7FFFF8
3FFFF0
ENDCHAR
STARTCHAR 004B
ENCODING 75
SWIDTH 291 0
DWIDTH 28 0
BBX 21 69 3 0
BITMAP
3E03F0
7E03F8
7E03F8
FE03F8
FE03F8
FE03F8
FE03F8
FE03F8
FE03F8
FE03F8
FE03F8
FE03F8
FE03F8
FE03F8
FE03F8
FE03F8
FE03F8
FE03F8
FE03F8
FE03F8
FE03F8
FE03F8
FE03F8
FE03F8
FE03F8
FE03F8
FE03F8
FE03F8
FE03F8
FE03F8
FE03F8
FE03F8
FE03F8
FE03F8
FE03F8
FE03F8
FE03F8
FE03F8
FE03F8
FE03F8
FE03F8
FE03F8
FE03F8
FE03F8
FE03F8
FFFFF8
FFFFF8
FFFFF8
FFFFF0
FFFFC0
FFFFF0
FFFFF8
FFFFF8
FFFFF8
FE03F8
FE03F8
FE03F8
FE03F8
FE03F8
FE03F8
FE03F8
FE03F8
FE03F8
FE03F8
FE03F8
7E03F8
7E03F8
7E03F8
3E03F0
ENDCHAR
STARTCHAR 004C
ENCODING 76
SWIDTH 291 0
DWIDTH 28 0
BBX 21 69 3 0
BITMAP
3E0000
7E0000
7E0000
FE0000
FE0000
FE0000
FE0000
FE0000
FE0000
FE0000
FE0000
FE0000
FE0000
FE0000
FE0000
FE0000
FE0000
FE0000
FE0000
FE0000
FE0000
FE0000
FE0000
FE0000
FE0000
FE0000
FE0000
FE0000
FE0000
FE0000
FE0000
FE0000
FE0000
FE0000
FE0000
FE0000
FE0000
FE0000
FE0000
FE0000
FE0000
FE0000
FE0000
FE0000
FE0000
FE0000
FE0000
FE0000
FE0000
FE03F0
FE03F8
FE03F8
FE03F8
FE03F8
FE03F8
FE03F8
FE03F8
FE03F8
FE03F8
FE03F8
FFFFF8
FFFFF8
FFFFF8
FFFFF8
FFFFF8
7FFFF8
7FFFF8
7FFFF8
3FFFF0
ENDCHAR
STARTCHAR 004D
ENCODING 77
SWIDTH 427 0
DWIDTH 41 0
BBX 35 69 3 0
BITMAP
3FFFFFFFC0
7FFFFFFFE0
7FFFFFFFE0
FFFFFFFFE0
FFFFFFFFE0
FFFFFFFFE0
FFFFFFFFE0
FFFFFFFFE0
FFFFFFFFE0
FE03F80FE0
FE03F80FE0
FE03F80FE0
FE03F80FE0
FE03F80FE0
FE03F80FE0
FE03F80FE0
FE03F80FE0
FE03F80FE0
FE03F80FE0
FE03F80FE0
FE03F80FE0
FE03F80FE0
FE03F80FE0
FE03F80FE0
FE03F80FE0
FE03F80FE0
FE03F80FE0
FE03F80FE0
FE03F80FE0
FE03F80FE0
FE03F80FE0
FE03F80FE0
FE03F80FE0
FE03F80FE0
FE03F80FE0
FE03F80FE0
FE03F80FE0
FE03F80FE0
FE03F80FE0
FE03F80FE0
FE03F80FE0
FE03F80FE0
FE03F80FE0
FE03F80FE0
FE03F80FE0
FE03F80FE0
FE03F80FE0
FE03F80FE0
FE03F80FE0
FE03F80FE0
FE03F80FE0
FE03F80FE0
FE03F80FE0
FE03F80FE0
FE03F80FE0
FE03F80FE0
FE03F80FE0
FE03F80FE0
FE03F80FE0
FE03F80FE0
FE03F80FE0
FE03F80FE0
FE03F80FE0
FE03F80FE0
FE03F80FE0
7E03F80FE0
7E03F80FE0
7E03F80FE0
3E03F80FC0
ENDCHAR
STARTCHAR 004E
ENCODING 78
SWIDTH 291 0
DWIDTH 28 0
BBX 21 69 3 0
BITMAP
3FFFF0
7FFFF8
7FFFF8
FFFFF8
FFFFF8
FFFFF8
FFFFF8
FFFFF8
FFFFF8
FE03F8
FE03F8
FE03F8
FE03F8
FE03F8
FE03F8
FE03F8
FE03F8
FE03F8
FE03F8
FE03F8
FE03F8
FE03F8
FE03F8
FE03F8
FE03F8
FE03F8
FE03F8
FE03F8
FE03F8
FE03F8
FE03F8
FE03F8
FE03F8
FE03F8
FE03F8
FE03F8
FE03F8
FE03F8
FE03F8
FE03F8
FE03F8
FE03F8
FE03F8
FE03F8
FE03F8
FE03F8
FE03F8
FE03F8
FE03F8
FE03F8
FE03F8
FE03F8
FE03F8
FE03F8
FE03F8
FE03F8
FE03F8
FE03F8
FE03F8
FE03F8
FE03F8
FE03F8
FE03F8
FE03F8
FE03F8
7E03F8
7E03F8
7E03F8
3E03F0
ENDCHAR
STARTCHAR 004F
ENCODING 79
SWIDTH 291 0
DWIDTH 28 0
BBX 21 69 3 0
BITMAP
3FFFF0
7FFFF8
7FFFF8
FFFFF8
FFFFF8
FFFFF8
FFFFF8
FFFFF8
FFFFF8
FE03F8
FE03F8
FE03F8
FE03F8
FE03F8
FE03F8
FE03F8
FE03F8
FE03F8
FE03F8
FE03F8
FE03F8
FE03F8
FE03F8
FE03F8
FE03F8
FE03F8
FE03F8
FE03F8
FE03F8
FE03F8
FE03F8
FE03F8
FE03F8
FE03F8
FE03F8
FE03F8
FE03F8
FE03F8
FE03F8
FE03F8
FE03F8
FE03F8
FE03F8
FE03F8
FE03F8
FE03F8
FE03F8
FE03F8
FE03F8
FE03F8
FE03F8
FE03F8
FE03F8
FE03F8
FE03F8
FE03F8
FE03F8
FE03F8
FE03F8
FE03F8
FFFFF8
FFFFF8
FFFFF8
FFFFF8
FFFFF8
7FFFF8
7FFFF8
7FFFF8
3FFFF0
ENDCHAR
STARTCHAR 0050
ENCODING 80
SWIDTH 291 0
DWIDTH 28 0
BBX 21 69 3 0
BITMAP
3FFFF0
7FFFF8
7FFFF8
FFFFF8
FFFFF8
FFFFF8
FFFFF8
FFFFF8
FFFFF8
FE03F8
FE03F8
FE03F8
FE03F8
FE03F8
FE03F8
FE03F8
FE03F8
FE03F8
FE03F8
FE03F8
FE03F8
FE03F8
FE03F8
FE03F8
FE03F8
FE03F8
FE03F8
FE03F8
FE03F8
FE03F8
FE03F8
FE03F8
FE03F8
FE03F8
FE03F8
FE03F8
FE03F8
FE03F8
FE03F8
FE03F8
FE03F8
FE03F8
FE03F8
FE03F8
FE03F8
FFFFF8
FFFFF8
FFFFF8
FFFFF8
FFFFF8
FFFFF8
FFFFF8
FFFFF8
FFFFF0
FE0000
FE0000
FE0000
FE0000
FE0000
FE0000
FE0000
FE0000
FE0000
FE0000
FE0000
7E0000
7E0000
7E0000
3E0000
ENDCHAR
STARTCHAR 0051
ENCODING 81
SWIDTH 291 0
DWIDTH 28 0
BBX 21 80 3 -11
BITMAP
3FFFF0
7FFFF8
7FFFF8
FFFFF8
FFFFF8
FFFFF8
FFFFF8
FFFFF8
FFFFF8
FE03F8
FE03F8
FE03F8
FE03F8
FE03F8
FE03F8
FE03F8
FE03F8
FE03F8
FE03F8
FE03F8
FE03F8
FE03F8
FE03F8
FE03F8
FE03F8
FE03F8
FE03F8
FE03F8
FE03F8
FE03F8
FE03F8
FE03F8
FE03F8
FE03F8
FE03F8
FE03F8
FE03F8
FE03F8
FE03F8
FE03F8
FE03F8
FE03F8
FE03F8
FE03F8
FE03F8
FE03F8
FE03F8
FE03F8
FE03F8
FE03F8
FE03F8
FE03F8
FE03F8
FE03F8
FE03F8
FE03F8
FE03F8
FE03F8
FE03F8
FE03F8
FFFFF8
FFFFF8
FFFFF8
FFFFF8
FFFFF8
FFFFF8
7FFFF8
7FFFF8
3FFFF0
01FC00
01FC00
01FC00
01FC00
01FC00
01FC00
01FC00
01FC00
01FC00
01FC00
01F800
ENDCHAR
STARTCHAR 0052
ENCODING 82
SWIDTH 291 0
DWIDTH 28 0
BBX 21 69 3 0
BITMAP
3FFFF0
7FFFF8
7FFFF8
FFFFF8
FFFFF8
FFFFF8
FFFFF8
FFFFF8
FFFFF8
FE03F8
FE03F8
FE03F8
FE03F8
FE03F8
FE03F8
FE03F8
FE03F8
FE03F8
FE03F8
FE03F8
FE03F8
FE03F8
FE03F8
FE03F8
FE03F8
FE03F8
FE03F8
FE03F8
FE03F8
FE03F8
FE03F8
FE03F8
FE03F8
FE03F8
FE03F8
FE03F8
FE03F8
FE03F8
FE03F8
FE03F8
FE03F8
FE03F8
FE03F8
FE03F8
FE03F8
FFFFF8
FFFFF8
FFFFF0
FFFFC0
FFFFF0
FFFFF8
FFFFF8
FFFFF8
FE03F8
FE03F8
FE03F8
FE03F8
FE03F8
FE03F8
FE03F8
FE03F8
FE03F8
FE03F8
FE03F8
FE03F8
7E03F8
7E03F8
7E03F8
3E03F0
ENDCHAR
STARTCHAR 0053
ENCODING 83
SWIDTH 291 0
DWIDTH 28 0
BBX 21 69 3 0
BITMAP
3FFFF0
7FFFF8
7FFFF8
FFFFF8
FFFFF8
FFFFF8
FFFFF8
FFFFF8
FFFFF8
FE0000
FE0000
FE0000
FE0000
FE0000
FE0000
FE0000
FE0000
FE0000
FE0000
FE0000
FE0000
FE0000
FE0000
FE0000
FE0000
FE0000
FE0000
FE0000
FE0000
FE0000
FE0000
FE0000
FE0000
FE0000
FE0000
FE0000
FE0000
FE0000
FE0000
FE0000
FE0000
FE0000
FE0000
FE0000
FE0000
FFFFE0
FFFFF0
FFFFF8
FFFFF8
7FFFF8
7FFFF8
7FFFF8
3FFFF8
1FFFF8
0003F8
0003F8
0003F8
0003F8
0003F8
0003F8
FFFFF8
FFFFF8
FFFFF8
7FFFF8
7FFFF8
7FFFF8
7FFFF8
7FFFF8
3FFFF0
ENDCHAR
STARTCHAR 0054
ENCODING 84
SWIDTH 250 0
DWIDTH 24 0
BBX 21 69 2 0
BITMAP
3FFFE0
7FFFF0
FFFFF8
FFFFF8
FFFFF8
FFFFF8
FFFFF8
FFFFF8
FFFFF8
01FC00
01FC00
01FC00
01FC00
01FC00
01FC00
01FC00
01FC00
01FC00
01FC00
01FC00
01FC00
01FC00
01FC00
01FC00
01FC00
01FC00
01FC00
01FC00
01FC00
01FC00
01FC00
01FC00
01FC00
01FC00
01FC00
01FC00
01FC00
01FC00
01FC00
01FC00
01FC00
01FC00
01FC00
01FC00
01FC00
01FC00
01FC00
01FC00
01FC00
01FC00
01FC00
01FC00
01FC00
01FC00
01FC00
01FC00
01FC00
01FC00
01FC00
01FC00
01FC00
01FC00
01FC00
01FC00
01FC00
01FC00
01FC00
01F800
01F000
ENDCHAR
STARTCHAR 0055
ENCODING 85
SWIDTH 291 0
DWIDTH 28 0
BBX 21 69 3 0
BITMAP
3E03F0
7E03F8
7E03F8
FE03F8
FE03F8
FE03F8
FE03F8
FE03F8
FE03F8
FE03F8
FE03F8
FE03F8
FE03F8
FE03F8
FE03F8
FE03F8
FE03F8
FE03F8
FE03F8
FE03F8
FE03F8
FE03F8
FE03F8
FE03F8
FE03F8
FE03F8
FE03F8
FE03F8
FE03F8
FE03F8
FE03F8
FE03F8
FE03F8
FE03F8
FE03F8
FE03F8
FE03F8
FE03F8
FE03F8
FE03F8
FE03F8
FE03F8
FE03F8
FE03F8
FE03F8
FE03F8
FE03F8
FE03F8
FE03F8
FE03F8
FE03F8
FE03F8
FE03F8
FE03F8
FE03F8
FE03F8
FE03F8
FE03F8
FE03F8
FE03F8
FFFFF8
FFFFF8
FFFFF8
FFFFF8
FFFFF8
7FFFF8
7FFFF8
7FFFF8
3FFFF0
ENDCHAR
STARTCHAR 0056
ENCODING 86
SWIDTH 291 0
DWIDTH 28 0
BBX 21 69 3 0
BITMAP
3E03F0
7E03F8
7E03F8
FE03F8
FE03F8
FE03F8
FE03F8
FE03F8
FE03F8
FE03F8
FE03F8
FE03F8
FE03F8
FE03F8
FE03F8
FE03F8
FE03F8
FE03F8
FE03F8
FE03F8
FE03F8
FE03F8
FE03F8
FE03F8
FE03F8
FE03F8
FE03F8
FE03F8
FE03F8
FE03F8
FE03F8
FE03F8
FE03F8
FE03F8
FE03F8
FE03F8
FE03F8
FE03F8
FE03F8
FE03F8
FE03F8
FE03F8
FE03F8
FE03F8
FE03F8
FE03F8
FE03F8
FE03F8
FE03F8
FE03F8
FE03F8
FE03F8
FE03F8
FE03F8
FF03F8
FF87F8
7FCFF8
3FFFF0
3FFFE0
1FFFE0
0FFFC0
07FF80
03FF00
03FE00
01FE00
00FC00
007800
003000
002000
ENDCHAR
STARTCHAR 0057
ENCODING 87
SWIDTH 427 0
DWIDTH 41 0
BBX 35 69 3 0
BITMAP
3E03F80FC0
7E03F80FE0
7E03F80FE0
FE03F80FE0
FE03F80FE0
FE03F80FE0
FE03F80FE0
FE03F80FE0
FE03F80FE0
FE03F80FE0
FE03F80FE0
FE03F80FE0
FE03F80FE0
FE03F80FE0
FE03F80FE0
FE03F80FE0
FE03F80FE0
FE03F80FE0
FE03F80FE0
FE03F80FE0
FE03F80FE0
FE03F80FE0
FE03F80FE0
FE03F80FE0
FE03F80FE0
FE03F80FE0
FE03F80FE0
FE03F80FE0
FE03F80FE0
FE03F80FE0
FE03F80FE0
FE03F80FE0
FE03F80FE0
FE03F80FE0
FE03F80FE0
FE03F80FE0
FE03F80FE0
FE03F80FE0
FE03F80FE0
FE03F80FE0
FE03F80FE0
FE03F80FE0
FE03F80FE0
FE03F80FE0
FE03F80FE0
FE03F80FE0
FE03F80FE0
FE03F80FE0
FE03F80FE0
FE03F80FE0
FE03F80FE0
FE03F80FE0
FE03F80FE0
FE03F80FE0
FE03F80FE0
FE03F80FE0
FE03F80FE0
FE03F80FE0
FE03F80FE0
FE03F80FE0
FFFFFFFFE0
FFFFFFFFE0
FFFFFFFFE0
FFFFFFFFE0
FFFFFFFFE0
7FFFFFFFE0
7FFFFFFFE0
7FFFFFFFE0
3FFFFFFFC0
ENDCHAR
STARTCHAR 0058
ENCODING 88
SWIDTH 291 0
DWIDTH 28 0
BBX 21 69 3 0
BITMAP
3E03F0
7E03F8
7E03F8
FE03F8
FE03F8
FE03F8
FE03F8
FE03F8
FE03F8
FE03F8
FE03F8
FE03F8
FE03F8
FE03F8
FE03F8
FE03F8
FE03F8
FE03F8
FE03F8
FE03F8
FE03F8
FE03F8
FE03F8
FE03F8
FE03F8
FE03F8
FE03F8
FE03F8
FE03F8
FE03F8
FE03F8
FE03F8
FE03F8
FE03F8
FE03F8
FE03F8
FE03F8
FE03F8
FE03F8
FE03F8
FE03F8
FE03F8
FE03F8
FE03F8
FE03F8
7FFFF8
7FFFF8
3FFFF0
0FFFC0
7FFFF0
7FFFF8
7FFFF8
FFFFF8
FE03F8
FE03F8
FE03F8
FE03F8
FE03F8
FE03F8
FE03F8
FE03F8
FE03F8
FE03F8
FE03F8
FE03F8
7E03F8
7E03F8
7E03F8
3E03F0
ENDCHAR
STARTCHAR 0059
ENCODING 89
SWIDTH 291 0
DWIDTH 28 0
BBX 21 69 3 0
BITMAP
3E03F0
7E03F8
7E03F8
FE03F8
FE03F8
FE03F8
FE03F8
FE03F8
FE03F8
FE03F8
FE03F8
FE03F8
FE03F8
FE03F8
FE03F8
FE03F8
FE03F8
FE03F8
FE03F8
FE03F8
FE03F8
FE03F8
FE03F8
FE03F8
FE03F8
FE03F8
FE03F8
FE03F8
FE03F8
FE03F8
FE03F8
FE03F8
FE03F8
FE03F8
FE03F8
FE03F8
FE03F8
FE03F8
FE03F8
FE03F8
FFFFF8
FFFFF8
FFFFF8
FFFFF8
FFFFF8
FFFFF8
7FFFF8
7FFFF8
3FFFF0
01FC00
01FC00
01FC00
01FC00
01FC00
01FC00
01FC00
01FC00
01FC00
01FC00
01FC00
01FC00
01FC00
01FC00
01FC00
01FC00
01FC00
01FC00
01FC00
01F800
ENDCHAR
STARTCHAR 005A
ENCODING 90
SWIDTH 291 0
DWIDTH 28 0
BBX 21 69 3 0
BITMAP
3FFFF0
7FFFF8
7FFFF8
FFFFF8
FFFFF8
FFFFF8
FFFFF8
FFFFF8
FFFFF8
0003F8
0003F8
0003F8
0003F8
0003F8
0003F8
0003F8
0003F8
0003F8
0003F8
0003F8
0003F8
0003F8
0003F8
0003F8
0003F8
0003F8
0003F8
0003F8
0003F8
0003F8
0003F8
0003F8
0003F8
0003F8
0003F8
0003F8
0003F8
0003F8
0003F8
0003F8
0003F8
0003F8
0003F8
0003F8
0003F8
3FFFF8
7FFFF8
7FFFF8
FFFFF8
FFFFF8
FFFFF8
FFFFF8
FFFFF8
FFFFE0
FE0000
FE0000
FE0000
FE0000
FE0000
FE0000
FFFFF8
FFFFF8
FFFFF8
FFFFF8
FFFFF8
7FFFF8
7FFFF8
7FFFF8
3FFFF0
ENDCHAR
STARTCHAR 005B
ENCODING 91
SWIDTH 291 0
DWIDTH 28 0
BBX 21 69 3 0
BITMAP
3FFFF0
7FFFF8
7FFFF8
FFFFF8
FFFFF8
FFFFF8
FFFFF8
FFFFF8
FFFFF8
FE0000
FE0000
FE0000
FE0000
FE0000
FE0000
FE0000
FE0000
FE0000
FE0000
FE0000
FE0000
FE0000
FE0000
FE0000
FE0000
FE0000
FE0000
FE0000
FE0000
FE0000
FE0000
FE0000
FE0000
FE0000
FE0000
FE0000
FE0000
FE0000
FE0000
FE0000
FE0000
FE0000
FE0000
FE0000
FE0000
FE0000
FE0000
FE0000
FE0000
FE0000
FE0000
FE0000
FE0000
FE0000
FE0000
FE0000
FE0000
FE0000
FE0000
FE0000
FFFFF8
FFFFF8
FFFFF8
FFFFF8
FFFFF8
7FFFF8
7FFFF8
7FFFF8
3FFFF0
ENDCHAR
STARTCHAR 005C
ENCODING 92
SWIDTH 291 0
DWIDTH 28 0
BBX 20 69 4 1
BITMAP
F80000
FC0000
FE0000
FE0000
FF0000
7F0000
7F0000
7F0000
7F8000
7F8000
3F8000
3F8000
3F8000
3FC000
3FC000
1FC000
1FC000
1FC000
1FE000
1FE000
0FE000
0FE000
0FE000
0FF000
0FF000
07F000
07F000
07F000
07F800
07F800
03F800
03F800
03FC00
03FC00
03FC00
01FC00
01FC00
01FE00
01FE00
01FE00
00FE00
00FE00
00FF00
00FF00
00FF00
007F00
007F00
007F80
007F80
007F80
003F80
003F80
003FC0
003FC0
003FC0
001FC0
001FC0
001FE0
001FE0
001FE0
000FE0
000FE0
000FF0
000FF0
000FF0
0007F0
0007E0
0007E0
0007C0
ENDCHAR
STARTCHAR 005D
ENCODING 93
SWIDTH 291 0
DWIDTH 28 0
BBX 21 69 3 0
BITMAP
3FFFF0
7FFFF8
7FFFF8
FFFFF8
FFFFF8
FFFFF8
FFFFF8
FFFFF8
FFFFF8
0003F8
0003F8
0003F8
0003F8
0003F8
0003F8
0003F8
0003F8
0003F8
0003F8
0003F8
0003F8
0003F8
0003F8
0003F8
0003F8
0003F8
0003F8
0003F8
0003F8
0003F8
0003F8
0003F8
0003F8
0003F8
0003F8
0003F8
0003F8
0003F8
0003F8
0003F8
0003F8
0003F8
0003F8
0003F8
0003F8
0003F8
0003F8
0003F8
0003F8
0003F8
0003F8
0003F8
0003F8
0003F8
0003F8
0003F8
0003F8
0003F8
0003F8
0003F8
FFFFF8
FFFFF8
FFFFF8
7FFFF8
7FFFF8
7FFFF8
7FFFF8
7FFFF8
3FFFF0
ENDCHAR
STARTCHAR 005E
ENCODING 94
SWIDTH 218 0
DWIDTH 21 0
BBX 13 9 4 60
BITMAP
0200
0700
0F00
0F80
1FC0
3FE0
7FE0
7FF0
FFF8
ENDCHAR
STARTCHAR 005F
ENCODING 95
SWIDTH 291 0
DWIDTH 28 0
BBX 28 5 0 -18
BITMAP
FFFFFFF0
FFFFFFF0
FFFFFFF0
FFFFFFF0
FFFFFFF0
ENDCHAR
STARTCHAR 0060
ENCODING 96
SWIDTH 177 0
DWIDTH 17 0
BBX 10 9 4 60
BITMAP
FE00
7E00
7E00
3F00
1F00
0F00
0F80
0780
03C0
ENDCHAR
STARTCHAR 0061
ENCODING 97
SWIDTH 291 0
DWIDTH 28 0
BBX 21 40 3 -16
BITMAP
3FFFF0
7FFFF8
7FFFF8
FFFFF8
FFFFF8
FFFFF8
FFFFF8
FFFFF8
FFFFF8
0003F8
0003F8
0003F8
0003F8
0003F8
0003F8
3FFFF8
7FFFF8
7FFFF8
FFFFF8
FFFFF8
FFFFF8
FFFFF8
FFFFF8
FFFFF8
FE03F8
FE03F8
FE03F8
FE03F8
FE03F8
FE03F8
FE03F8
FFFFF8
FFFFF8
FFFFF8
FFFFF8
FFFFF8
7FFFF8
7FFFF8
7FFFF8
3FFFF0
ENDCHAR
STARTCHAR 0062
ENCODING 98
SWIDTH 291 0
DWIDTH 28 0
BBX 21 52 3 0
BITMAP
3E0000
7E0000
7E0000
FE0000
FE0000
FE0000
FE0000
FE0000
FE0000
FE0000
FE0000
FE0000
FE0000
FE0000
FE0000
FE0000
FE0000
FE0000
FE0000
FE0000
FE0000
FE0000
FE0000
FE0000
FE0000
FE0000
FE0000
FE0000
FFFFF0
FFFFF8
FFFFF8
FFFFF8
FFFFF8
FFFFF8
FFFFF8
FFFFF8
FFFFF8
FE03F8
FE03F8
FE03F8
FE03F8
FE03F8
FE03F8
FFFFF8
FFFFF8
FFFFF8
FFFFF8
FFFFF8
7FFFF8
7FFFF8
7FFFF8
3FFFF0
ENDCHAR
STARTCHAR 0063
ENCODING 99
SWIDTH 281 0
DWIDTH 27 0
BBX 18 24 4 0
BITMAP
3FFF00
7FFF80
FFFFC0
FFFFC0
FFFFC0
FFFFC0
FFFFC0
FFFFC0
FFFFC0
FE0000
FE0000
FE0000
FE0000
FE0000
FE0000
FFFFC0
FFFFC0
FFFFC0
FFFFC0
FFFFC0
FFFFC0
FFFFC0
7FFF80
3FFF00
ENDCHAR
STARTCHAR 0064
ENCODING 100
SWIDTH 291 0
DWIDTH 28 0
BBX 21 52 3 0
BITMAP
0003F0
0003F8
0003F8
0003F8
0003F8
0003F8
0003F8
0003F8
0003F8
0003F8
0003F8
0003F8
0003F8
0003F8
0003F8
0003F8
0003F8
0003F8
0003F8
0003F8
0003F8
0003F8
0003F8
0003F8
0003F8
0003F8
0003F8
0003F8
3FFFF8
7FFFF8
7FFFF8
FFFFF8
FFFFF8
FFFFF8
FFFFF8
FFFFF8
FFFFF8
FE03F8
FE03F8
FE03F8
FE03F8
FE03F8
FE03F8
FFFFF8
FFFFF8
FFFFF8
FFFFF8
FFFFF8
7FFFF8
7FFFF8
7FFFF8
3FFFF0
ENDCHAR
STARTCHAR 0065
ENCODING 101
SWIDTH 291 0
DWIDTH 28 0
BBX 21 40 3 -16
BITMAP
3FFFF0
7FFFF8
7FFFF8
FFFFF8
FFFFF8
FFFFF8
FFFFF8
FFFFF8
FFFFF8
FE03F8
FE03F8
FE03F8
FE03F8
FE03F8
FE03F8
FFFFF8
FFFFF8
FFFFF8
FFFFF8
FFFFF8
FFFFF8
FFFFF8
FFFFF8
FFFFE0
FE0000
FE0000
FE0000
FE0000
FE0000
FE0000
FE0000
FFFFF8
FFFFF8
FFFFF8
FFFFF8
FFFFF8
7FFFF8
7FFFF8
7FFFF8
3FFFF0
ENDCHAR
STARTCHAR 0066
ENCODING 102
SWIDTH 229 0
DWIDTH 22 0
BBX 18 52 3 0
BITMAP
3FFF80
7FFFC0
7FFFC0
FFFFC0
FFFFC0
FFFFC0
FFFFC0
FFFFC0
FFFFC0
FE0000
FE0000
FE0000
FE0000
FE0000
FE0000
FE0000
FE0000
FE0000
FE0000
FE0000
FE0000
FE0000
FE0000
FE0000
FE0000
FE0000
FE0000
FE0000
FFFC00
FFFC00
FFFC00
FFFC00
FFFC00
FFFC00
FFFC00
FFFC00
FFFC00
FE0000
FE0000
FE0000
FE0000
FE0000
FE0000
FE0000
FE0000
FE0000
FE0000
FE0000
7E0000
7E0000
7E0000
3E0000
ENDCHAR
STARTCHAR 0067
ENCODING 103
SWIDTH 291 0
DWIDTH 28 0
BBX 21 40 3 -16
BITMAP
3FFFF0
7FFFF8
7FFFF8
FFFFF8
FFFFF8
FFFFF8
FFFFF8
FFFFF8
FFFFF8
FE03F8
FE03F8
FE03F8
FE03F8
FE03F8
FE03F8
FFFFF8
FFFFF8
FFFFF8
FFFFF8
FFFFF8
7FFFF8
7FFFF8
7FFFF8
3FFFF8
0003F8
0003F8
0003F8
0003F8
0003F8
0003F8
0003F8
FFFFF8
FFFFF8
FFFFF8
FFFFF8
FFFFF8
7FFFF8
7FFFF8
7FFFF8
3FFFF0
ENDCHAR
STARTCHAR 0068
ENCODING 104
SWIDTH 291 0
DWIDTH 28 0
BBX 21 52 3 0
BITMAP
3E0000
7E0000
7E0000
FE0000
FE0000
FE0000
FE0000
FE0000
FE0000
FE0000
FE0000
FE0000
FE0000
FE0000
FE0000
FE0000
FE0000
FE0000
FE0000
FE0000
FE0000
FE0000
FE0000
FE0000
FE0000
FE0000
FE0000
FE0000
FFFFE0
FFFFF8
FFFFF8
FFFFF8
FFFFF8
FFFFF8
FFFFF8
FFFFF8
FFFFF8
FE03F8
FE03F8
FE03F8
FE03F8
FE03F8
FE03F8
FE03F8
FE03F8
FE03F8
FE03F8
FE03F8
7E03F8
7E03F8
7E03F8
3E03F0
ENDCHAR
STARTCHAR 0069
ENCODING 105
SWIDTH 145 0
DWIDTH 14 0
BBX 7 39 3 0
BITMAP
3C
7E
7E
7E
FE
7E
7E
7E
3C
00
00
00
00
00
00
3E
7E
7E
FE
FE
FE
FE
FE
FE
FE
FE
FE
FE
FE
FE
FE
FE
FE
FE
FE
7E
7E
7E
3E
ENDCHAR
STARTCHAR 006A
ENCODING 106
SWIDTH 156 0
DWIDTH 15 0
BBX 14 48 -2 -9
BITMAP
0070
00F8
01FC
01FC
01FC
01FC
01FC
00F8
0070
0000
0000
0000
0000
0000
0000
01F0
01F8
01FC
01FC
01FC
01FC
01FC
01FC
01FC
01FC
01FC
01FC
01FC
01FC
01FC
01FC
01FC
01FC
01FC
01FC
01FC
01FC
01FC
01FC
FFFC
FFFC
FFFC
FFFC
FFFC
FFFC
FFFC
7FF8
3FF0
ENDCHAR
STARTCHAR 006B
ENCODING 107
SWIDTH 291 0
DWIDTH 28 0
BBX 21 52 3 0
BITMAP
3E0000
7E0000
7E0000
FE0000
FE0000
FE0000
FE0000
FE0000
FE0000
FE0000
FE0000
FE0000
FE0000
FE0000
FE0000
FE0000
FE0000
FE0000
FE0000
FE0000
FE0000
FE0000
FE0000
FE0000
FE0000
FE0000
FE0000
FE0000
FE03F0
FE03F8
FE03F8
FE03F8
FE03F8
FE03F8
FFFFF8
FFFFF8
FFFFF8
FFFFF8
FFFFF0
FFFFE0
FFFFF8
FFFFF8
FFFFF8
FE03F8
FE03F8
FE03F8
FE03F8
FE03F8
7E03F8
7E03F8
7E03F8
3E03F0
ENDCHAR
STARTCHAR 006C
ENCODING 108
SWIDTH 145 0
DWIDTH 14 0
BBX 7 52 3 0
BITMAP
FC
FE
FE
FE
FE
FE
FE
FE
FE
FE
FE
FE
FE
FE
FE
FE
FE
FE
FE
FE
FE
FE
FE
FE
FE
FE
FE
FE
FE
FE
FE
FE
FE
FE
FE
FE
FE
FE
FE
FE
FE
FE
FE
FE
FE
FE
FE
FE
FE
FE
FE
FC
ENDCHAR
STARTCHAR 006D
ENCODING 109
SWIDTH 427 0
DWIDTH 41 0
BBX 35 24 3 0
BITMAP
3FFFFFFFC0
7FFFFFFFE0
7FFFFFFFE0
FFFFFFFFE0
FFFFFFFFE0
FFFFFFFFE0
FFFFFFFFE0
FFFFFFFFE0
FFFFFFFFE0
FE03F80FE0
FE03F80FE0
FE03F80FE0
FE03F80FE0
FE03F80FE0
FE03F80FE0
FE03F80FE0
FE03F80FE0
FE03F80FE0
FE03F80FE0
FE03F80FE0
7E03F80FE0
7E03F80FE0
7E03F80FE0
3E03F80FC0
ENDCHAR
STARTCHAR 006E
ENCODING 110
SWIDTH 291 0
DWIDTH 28 0
BBX 21 24 3 0
BITMAP
3FFFF0
7FFFF8
7FFFF8
FFFFF8
FFFFF8
FFFFF8
FFFFF8
FFFFF8
FFFFF8
FE03F8
FE03F8
FE03F8
FE03F8
FE03F8
FE03F8
FE03F8
FE03F8
FE03F8
FE03F8
FE03F8
7E03F8
7E03F8
7E03F8
3E03F0
ENDCHAR
STARTCHAR 006F
ENCODING 111
SWIDTH 291 0
DWIDTH 28 0
BBX 21 24 3 0
BITMAP
3FFFF0
7FFFF8
7FFFF8
FFFFF8
FFFFF8
FFFFF8
FFFFF8
FFFFF8
FFFFF8
FE03F8
FE03F8
FE03F8
FE03F8
FE03F8
FE03F8
FFFFF8
FFFFF8
FFFFF8
FFFFF8
FFFFF8
7FFFF8
7FFFF8
7FFFF8
3FFFF0
ENDCHAR
STARTCHAR 0070
ENCODING 112
SWIDTH 291 0
DWIDTH 28 0
BBX 21 40 3 -16
BITMAP
3FFFF0
7FFFF8
7FFFF8
FFFFF8
FFFFF8
FFFFF8
FFFFF8
FFFFF8
FFFFF8
FE03F8
FE03F8
FE03F8
FE03F8
FE03F8
FE03F8
FFFFF8
FFFFF8
FFFFF8
FFFFF8
FFFFF8
FFFFF8
FFFFF8
FFFFF8
FFFFE0
FE0000
FE0000
FE0000
FE0000
FE0000
FE0000
FE0000
FE0000
FE0000
FE0000
FE0000
FE0000
7E0000
7E0000
7E0000
3E0000
ENDCHAR
STARTCHAR 0071
ENCODING 113
SWIDTH 291 0
DWIDTH 28 0
BBX 21 40 3 -16
BITMAP
3FFFF0
7FFFF8
7FFFF8
FFFFF8
FFFFF8
FFFFF8
FFFFF8
FFFFF8
FFFFF8
FE03F8
FE03F8
FE03F8
FE03F8
FE03F8
FE03F8
FFFFF8
FFFFF8
FFFFF8
FFFFF8
FFFFF8
7FFFF8
7FFFF8
7FFFF8
3FFFF8
0003F8
0003F8
0003F8
0003F8
0003F8
0003F8
0003F8
0003F8
0003F8
0003F8
0003F8
0003F8
0003F8
0003F8
0003F8
0003F0
ENDCHAR
STARTCHAR 0072
ENCODING 114
SWIDTH 270 0
DWIDTH 26 0
BBX 17 24 4 0
BITMAP
3FFE00
7FFF00
FFFF80
FFFF80
FFFF80
FFFF80
FFFF80
FFFF80
FFFF80
FE0000
FE0000
FE0000
FE0000
FE0000
FE0000
FE0000
FE0000
FE0000
FE0000
FE0000
FE0000
FE0000
7E0000
3E0000
ENDCHAR
STARTCHAR 0073
ENCODING 115
SWIDTH 291 0
DWIDTH 28 0
BBX 21 40 3 -16
BITMAP
3FFFF0
7FFFF8
7FFFF8
FFFFF8
FFFFF8
FFFFF8
FFFFF8
FFFFF8
FFFFF8
FE0000
FE0000
FE0000
FE0000
FE0000
FE0000
FFFFE0
FFFFF8
FFFFF8
FFFFF8
FFFFF8
7FFFF8
7FFFF8
7FFFF8
3FFFF8
0003F8
0003F8
0003F8
0003F8
0003F8
0003F8
0003F8
FFFFF8
FFFFF8
FFFFF8
FFFFF8
FFFFF8
7FFFF8
7FFFF8
7FFFF8
3FFFF0
ENDCHAR
STARTCHAR 0074
ENCODING 116
SWIDTH 239 0
DWIDTH 23 0
BBX 16 43 3 0
BITMAP
3E00
7E00
7E00
FE00
FE00
FE00
FE00
FE00
FE00
FE00
FE00
FE00
FE00
FE00
FE00
FE00
FE00
FE00
FE00
FFFF
FFFF
FFFF
FFFF
FFFF
FFFF
FFFF
FFFF
FFFF
FE00
FE00
FE00
FE00
FE00
FE00
FFF0
FFF0
FFF0
FFF0
FFF0
7FF0
7FF0
7FF0
3FE0
ENDCHAR
STARTCHAR 0075
ENCODING 117
SWIDTH 291 0
DWIDTH 28 0
BBX 21 24 3 0
BITMAP
3E03F0
7E03F8
7E03F8
FE03F8
FE03F8
FE03F8
FE03F8
FE03F8
FE03F8
FE03F8
FE03F8
FE03F8
FE03F8
FE03F8
FE03F8
FFFFF8
FFFFF8
FFFFF8
FFFFF8
FFFFF8
7FFFF8
7FFFF8
7FFFF8
3FFFF0
ENDCHAR
STARTCHAR 0076
ENCODING 118
SWIDTH 291 0
DWIDTH 28 0
BBX 21 24 3 0
BITMAP
3E03F0
7E03F8
7E03F8
FE03F8
FE03F8
FE03F8
FE03F8
FE03F8
FE03F8
FF03F8
FF87F8
7FCFF8
3FFFF0
3FFFE0
1FFFE0
0FFFC0
07FF80
03FF00
03FE00
01FE00
00FC00
007800
003000
002000
ENDCHAR
STARTCHAR 0077
ENCODING 119
SWIDTH 427 0
DWIDTH 41 0
BBX 35 24 3 0
BITMAP
3E03F80FC0
7E03F80FE0
7E03F80FE0
FE03F80FE0
FE03F80FE0
FE03F80FE0
FE03F80FE0
FE03F80FE0
FE03F80FE0
FF07FC0FE0
FF8FFE1FE0
7FCFFF3FE0
3FFFFFFFC0
3FFFFFFF80
1FFFFFFF80
0FFF9FFF00
07FF1FFE00
03FE0FFC00
03FC07F800
01FC03F000
00F803F000
007001E000
002000C000
0000008000
ENDCHAR
STARTCHAR 0078
ENCODING 120
SWIDTH 291 0
DWIDTH 28 0
BBX 21 24 3 0
BITMAP
3E03F0
7E03F8
7E03F8
FE03F8
FE03F8
FE03F8
FE03F8
FFFFF8
7FFFF8
7FFFF8
3FFFF0
0FFFC0
7FFFF0
7FFFF8
7FFFF8
FFFFF8
FE03F8
FE03F8
FE03F8
FE03F8
7E03F8
7E03F8
7E03F8
3E03F0
ENDCHAR
STARTCHAR 0079
ENCODING 121
SWIDTH 291 0
DWIDTH 28 0
BBX 21 40 3 -16
BITMAP
3E03F0
7E03F8
7E03F8
FE03F8
FE03F8
FE03F8
FE03F8
FE03F8
FE03F8
FE03F8
FE03F8
FE03F8
FE03F8
FE03F8
FE03F8
FFFFF8
FFFFF8
FFFFF8
FFFFF8
FFFFF8
7FFFF8
7FFFF8
7FFFF8
3FFFF8
0003F8
0003F8
0003F8
0003F8
0003F8
0003F8
0003F8
FFFFF8
FFFFF8
FFFFF8
FFFFF8
FFFFF8
7FFFF8
7FFFF8
7FFFF8
3FFFF0
ENDCHAR
STARTCHAR 007A
ENCODING 122
SWIDTH 291 0
DWIDTH 28 0
BBX 21 40 3 -16
BITMAP
3FFFF0
7FFFF8
7FFFF8
FFFFF8
FFFFF8
FFFFF8
FFFFF8
FFFFF8
FFFFF8
0003F8
0003F8
0003F8
0003F8
0003F8
0003F8
3FFFF8
7FFFF8
7FFFF8
FFFFF8
FFFFF8
FFFFF8
FFFFF8
FFFFF8
FFFFE0
FE0000
FE0000
FE0000
FE0000
FE0000
FE0000
FE0000
FFFFF8
FFFFF8
FFFFF8
FFFFF8
FFFFF8
7FFFF8
7FFFF8
7FFFF8
3FFFF0
ENDCHAR
STARTCHAR 007B
ENCODING 123
SWIDTH 291 0
DWIDTH 28 0
BBX 21 69 3 0
BITMAP
3FFFF0
7FFFF8
7FFFF8
FFFFF8
FFFFF8
FFFFF8
FFFFF8
FFFFF8
FFFFF8
FE0000
FE0000
FE0000
FE0000
FE0000
FE0000
FE0000
FE0000
FE0000
FE0000
FE0000
FE0000
FE0000
FE0000
FE0000
FE0000
FE0000
FE0000
FE0000
FE0000
FE0000
FE0000
FE0000
FE0000
FE0000
FE0000
FE0000
FE0000
FE0000
FE0000
FE0000
FE0000
FE0000
FE0000
FE0000
FE0000
FE0000
FE0000
FE0000
FE0000
FE0000
FE0000
FE0000
FE0000
FE0000
FE0000
FE0000
FE0000
FE0000
FE0000
FE0000
FFFFF8
FFFFF8
FFFFF8
FFFFF8
FFFFF8
7FFFF8
7FFFF8
7FFFF8
3FFFF0
ENDCHAR
STARTCHAR 007C
ENCODING 124
SWIDTH 145 0
DWIDTH 14 0
BBX 7 78 3 -9
BITMAP
FE
FE
FE
FE
FE
FE
FE
FE
FE
FE
FE
FE
FE
FE
FE
FE
FE
FE
FE
FE
FE
FE
FE
FE
FE
FE
FE
FE
FE
FE
FE
FE
FE
FE
FE
FE
FE
FE
FE
FE
FE
FE
FE
FE
FE
FE
FE
FE
FE
FE
FE
FE
FE
FE
FE
FE
FE
FE
FE
FE
FE
FE
FE
FE
FE
FE
FE
FE
FE
FE
FE
FE
FE
FE
FE
FE
FE
FE
ENDCHAR
STARTCHAR 007D
ENCODING 125
SWIDTH 291 0
DWIDTH 28 0
BBX 21 69 3 0
BITMAP
3FFFF0
7FFFF8
7FFFF8
FFFFF8
FFFFF8
FFFFF8
FFFFF8
FFFFF8
FFFFF8
0003F8
0003F8
0003F8
0003F8
0003F8
0003F8
0003F8
0003F8
0003F8
0003F8
0003F8
0003F8
0003F8
0003F8
0003F8
0003F8
0003F8
0003F8
0003F8
0003F8
0003F8
0003F8
0003F8
0003F8
0003F8
0003F8
0003F8
0003F8
0003F8
0003F8
0003F8
0003F8
0003F8
0003F8
0003F8
0003F8
0003F8
0003F8
0003F8
0003F8
0003F8
0003F8
0003F8
0003F8
0003F8
0003F8
0003F8
0003F8
0003F8
0003F8
0003F8
FFFFF8
FFFFF8
FFFFF8
7FFFF8
7FFFF8
7FFFF8
7FFFF8
7FFFF8
3FFFF0
ENDCHAR
STARTCHAR 007E
ENCODING 126
SWIDTH 291 0
DWIDTH 28 0
BBX 0 0 0 0
BITMAP
ENDCHAR
STARTCHAR 2010
ENCODING 8208
SWIDTH 291 0
DWIDTH 28 0
BBX 21 8 3 16
BITMAP
FFFFF8
FFFFF8
FFFFF8
FFFFF8
FFFFF8
FFFFF8
FFFFF8
FFFFF8
ENDCHAR
STARTCHAR 2018
ENCODING 8216
SWIDTH 156 0
DWIDTH 15 0
BBX 9 15 4 53
BITMAP
1F80
3F80
7F00
7F00
7F00
7F00
FF00
FE00
FE00
FE00
FE00
FE00
FC00
FC00
7C00
ENDCHAR
STARTCHAR 2019
ENCODING 8217
SWIDTH 156 0
DWIDTH 15 0
BBX 9 15 4 55
BITMAP
7C00
FE00
FE00
FE00
FE00
FE00
FF00
7F00
7F00
7F00
7F00
7F80
3F80
1F80
0F80
ENDCHAR
STARTCHAR 201C
ENCODING 8220
SWIDTH 291 0
DWIDTH 28 0
BBX 22 15 3 54
BITMAP
0F81F8
3F81FC
3F81FC
7F01FC
7F01FC
7F01FC
7F03FC
7F03F8
FF03F8
FE03F8
FE03F8
FE07F0
FE07F0
FE07E0
7C07C0
ENDCHAR
STARTCHAR 201D
ENCODING 8221
SWIDTH 291 0
DWIDTH 28 0
BBX 22 15 3 54
BITMAP
7E07E0
FE07F0
FE03F8
FE03F8
FF03F8
7F03F8
7F03FC
7F01FC
7F01FC
7F01FC
3F81FC
3F81FC
3F80FC
1F80FC
0F80F8
ENDCHAR
STARTCHAR 2026
ENCODING 8230
SWIDTH 291 0
DWIDTH 28 0
BBX 21 9 4 0
BITMAP
1C3870
3E7CF8
7EFDF8
7FFFF8
FFFFF8
FFFFF8
FDFBF0
7DFBF0
78F1E0
ENDCHAR
ENDFONT
